<svg width="19" height="19" viewBox="0 0 19 19" fill="none" xmlns="http://www.w3.org/2000/svg">
<path d="M17.2548 14.2338L16.9103 14.0282L16.8254 14.1704L16.8656 14.3311L17.2548 14.2338ZM14.6814 16.9812L14.7786 16.592L14.6028 16.5481L14.4537 16.651L14.6814 16.9812ZM18.1592 17.8504L18.0619 18.2396L18.7105 18.4017L18.5483 17.7531L18.1592 17.8504ZM18.0941 9.71928C18.0945 11.2949 17.6624 12.7683 16.9103 14.0282L17.5992 14.4394C18.4235 13.0585 18.8969 11.4435 18.8964 9.71904L18.0941 9.71928ZM9.6927 1.31403C14.3309 1.31264 18.0927 5.07541 18.0941 9.71928L18.8964 9.71904C18.8948 4.63285 14.7745 0.510226 9.69246 0.511749L9.6927 1.31403ZM1.29636 9.72431C1.29497 5.08045 5.05452 1.31542 9.6927 1.31403L9.69246 0.511749C4.61043 0.513273 0.492553 4.63837 0.494078 9.72455L1.29636 9.72431ZM9.69774 18.1296C5.05956 18.1309 1.29775 14.3682 1.29636 9.72431L0.494078 9.72455C0.495602 14.8107 4.61595 18.9334 9.69798 18.9318L9.69774 18.1296ZM14.4537 16.651C13.1018 17.5831 11.4641 18.129 9.69774 18.1296L9.69798 18.9318C11.6321 18.9313 13.4277 18.3329 14.9091 17.3115L14.4537 16.651ZM14.5841 17.3704L18.0619 18.2396L18.2564 17.4613L14.7786 16.592L14.5841 17.3704ZM18.5483 17.7531L17.6439 14.1365L16.8656 14.3311L17.77 17.9478L18.5483 17.7531Z" fill="black"/>
</svg>
