<svg width="13" height="22" viewBox="0 0 13 22" fill="none" xmlns="http://www.w3.org/2000/svg">
<path d="M4.20176 7.38379V15.4772C4.21133 16.069 4.45867 16.6334 4.89042 17.0486C5.32216 17.4638 5.90369 17.6965 6.5095 17.6965C7.11532 17.6965 7.69684 17.4638 8.12859 17.0486C8.56033 16.6334 8.80768 16.069 8.81724 15.4772L8.82473 4.86885C8.83101 4.36301 8.73446 3.86098 8.54068 3.39187C8.3469 2.92276 8.05974 2.4959 7.69584 2.13602C7.33195 1.77615 6.89856 1.49043 6.42081 1.29542C5.94305 1.10041 5.43043 1 4.91265 1C4.39488 1 3.88226 1.10041 3.4045 1.29542C2.92674 1.49043 2.49336 1.77615 2.12946 2.13602C1.76557 2.4959 1.47841 2.92276 1.28463 3.39187C1.09084 3.86098 0.994294 4.36301 1.00058 4.86885V15.5486C0.990027 16.2608 1.12448 16.9678 1.39612 17.6288C1.66776 18.2897 2.07116 18.8913 2.58287 19.3985C3.09459 19.9058 3.70441 20.3086 4.37687 20.5835C5.04934 20.8584 5.77103 21 6.5 21C7.22897 21 7.95066 20.8584 8.62313 20.5835C9.29559 20.3086 9.90541 19.9058 10.4171 19.3985C10.9288 18.8913 11.3322 18.2897 11.6039 17.6288C11.8755 16.9678 12.01 16.2608 11.9994 15.5486V5.56876" stroke="white" stroke-miterlimit="10" stroke-linecap="round"/>
</svg>
