<svg width="69" height="45" viewBox="0 0 69 45" fill="none" xmlns="http://www.w3.org/2000/svg">
<path d="M9.34178 20.4522C6.73432 20.4522 4.62352 19.6806 3.00938 18.1374C1.39524 16.5765 0.588164 14.5899 0.588164 12.1775C0.588164 10.0312 1.11143 8.09779 2.15796 6.37723C3.22223 4.63892 4.65899 3.29971 6.46825 2.35961C8.27751 1.40177 10.273 0.922852 12.4548 0.922852C15.0445 0.922852 17.1376 1.70331 18.734 3.26424C20.3481 4.80743 21.1552 6.77633 21.1552 9.17093C21.1552 11.335 20.623 13.2861 19.5588 15.0244C18.5122 16.745 17.0932 18.0842 15.3017 19.0421C13.5102 19.9822 11.5235 20.4522 9.34178 20.4522ZM10.007 15.8493C11.7275 15.8493 13.1554 15.2284 14.2906 13.9868C15.4436 12.7451 16.0201 11.2995 16.0201 9.64985C16.0201 8.81618 15.8427 8.08893 15.4879 7.4681C15.1332 6.84728 14.6277 6.36836 13.9714 6.03134C13.3328 5.69432 12.5878 5.52581 11.7364 5.52581C10.0513 5.52581 8.6234 6.14663 7.4527 7.38828C6.29974 8.62993 5.72326 10.0756 5.72326 11.7252C5.72326 12.9669 6.1135 13.969 6.89396 14.7318C7.67442 15.4768 8.71209 15.8493 10.007 15.8493ZM41.168 1.37516H46.1701L45.2654 19.9999H40.3964L41.0882 9.22416L33.8512 20.0265H32.4676L29.5941 9.17093L25.8691 19.9999H20.734L27.2793 1.37516H32.1483L34.6228 11.4857L41.168 1.37516ZM59.3319 5.55242C58.1967 5.55242 57.1767 5.85396 56.2721 6.45705C55.3675 7.04239 54.6668 7.81399 54.1702 8.77183C53.6912 9.72967 53.4518 10.7762 53.4518 11.9115C53.4518 13.0999 53.8065 14.0489 54.5161 14.7584C55.2256 15.4679 56.2011 15.8226 57.4428 15.8226C59.7842 15.8226 61.3983 14.9624 62.2852 13.2418H57.4694L58.1346 10.1022H68.2717C67.7928 13.4014 66.56 15.9557 64.5734 17.7649C62.5868 19.5565 60.0236 20.4522 56.8841 20.4522C54.4008 20.4522 52.3698 19.6806 50.7911 18.1374C49.2124 16.5942 48.4231 14.6431 48.4231 12.2839C48.4231 10.1909 48.9198 8.28404 49.9131 6.56347C50.9241 4.82517 52.3077 3.45049 54.0637 2.43943C55.8375 1.42838 57.7976 0.922852 59.9438 0.922852C62.3207 0.922852 64.3251 1.6501 65.957 3.1046C67.6066 4.54136 68.4225 6.25306 68.4048 8.2397H63.2431C63.0479 7.42376 62.5956 6.77633 61.8861 6.29741C61.1943 5.80075 60.3429 5.55242 59.3319 5.55242ZM6.6229 44.4522C4.61853 44.4522 3.03099 43.991 1.8603 43.0687C0.707338 42.1286 0.130859 40.8514 0.130859 39.2373C0.130859 38.8293 0.175203 38.4036 0.263892 37.9602H5.34578C5.3103 38.1021 5.29257 38.244 5.29257 38.3859C5.29257 38.9358 5.46994 39.3703 5.8247 39.6896C6.17946 39.9912 6.67611 40.1419 7.31468 40.1419C7.77586 40.1419 8.20157 40.071 8.5918 39.9291C8.98203 39.7694 9.30131 39.53 9.54964 39.2107C9.79797 38.8914 9.92214 38.51 9.92214 38.0666C9.92214 37.8005 9.84231 37.5699 9.68267 37.3748C9.54077 37.1797 9.31018 37.0112 8.9909 36.8693C8.67162 36.7274 8.37008 36.6121 8.08627 36.5234C7.8202 36.4347 7.43884 36.3283 6.94218 36.2041C6.51647 36.08 6.17946 35.9824 5.93113 35.9115C5.6828 35.8405 5.35465 35.7341 4.94668 35.5922C4.55645 35.4503 4.23716 35.3084 3.98884 35.1665C3.74051 35.0246 3.46557 34.8383 3.16403 34.6077C2.88022 34.3594 2.64963 34.1111 2.47225 33.8627C2.31261 33.5967 2.17071 33.2774 2.04654 32.9049C1.94012 32.5147 1.8869 32.1067 1.8869 31.681C1.8869 30.2087 2.23279 28.9671 2.92457 27.956C3.61634 26.9273 4.55645 26.1645 5.74488 25.6679C6.95105 25.1712 8.35234 24.9229 9.94874 24.9229C11.1904 24.9229 12.2635 25.1091 13.1682 25.4816C14.0728 25.8541 14.7646 26.4129 15.2435 27.1578C15.7401 27.8851 15.9885 28.7631 15.9885 29.7919C15.9885 30.2176 15.953 30.6256 15.8821 31.0158H10.9598C10.9775 30.8739 10.9864 30.7497 10.9864 30.6433C10.9864 30.1644 10.8268 29.7919 10.5075 29.5258C10.206 29.242 9.77136 29.1001 9.20375 29.1001C8.54745 29.1001 8.01532 29.2509 7.60735 29.5524C7.19938 29.8363 6.9954 30.2531 6.9954 30.803C6.9954 31.0336 7.05748 31.2375 7.18164 31.4149C7.32355 31.5923 7.54527 31.7519 7.84681 31.8938C8.16609 32.0357 8.4499 32.151 8.69823 32.2397C8.96429 32.3284 9.34566 32.4437 9.84232 32.5856C10.1793 32.6743 10.4454 32.7453 10.6405 32.7985C10.8356 32.8517 11.1017 32.9404 11.4387 33.0645C11.7757 33.171 12.0418 33.2685 12.2369 33.3572C12.4498 33.4459 12.6981 33.5701 12.9819 33.7297C13.2835 33.8893 13.5229 34.049 13.7003 34.2086C13.8777 34.3683 14.0639 34.5634 14.259 34.794C14.4542 35.0068 14.6049 35.2374 14.7114 35.4857C14.8355 35.7163 14.9331 35.9913 15.004 36.3106C15.075 36.6298 15.1105 36.9669 15.1105 37.3216C15.1105 39.5743 14.33 41.3304 12.7691 42.5897C11.2081 43.8314 9.15941 44.4522 6.6229 44.4522ZM36.0233 25.3752H41.0254L40.1208 43.9999H35.2517L35.9435 33.2242L28.7065 44.0265H27.3229L24.4494 33.171L20.7245 43.9999H15.5894L22.1346 25.3752H27.0037L29.4781 35.4857L36.0233 25.3752ZM62.1104 25.3752H67.1125L66.2078 43.9999H61.3388L62.0306 33.2242L54.7936 44.0265H53.41L50.5365 33.171L46.8115 43.9999H41.6764L48.2217 25.3752H53.0907L55.5652 35.4857L62.1104 25.3752Z" fill="#1C142B"/>
</svg>
