<svg width="34" height="34" viewBox="0 0 34 34" fill="none" xmlns="http://www.w3.org/2000/svg">
<path fill-rule="evenodd" clip-rule="evenodd" d="M17 0C7.61175 0 0 7.61175 0 17C0 26.3883 7.61175 34 17 34C26.3883 34 34 26.3883 34 17C34 7.61175 26.3883 0 17 0ZM8.64307 13.181C8.64307 10.4161 10.8916 8.16554 13.6557 8.16554H20.8187C23.5835 8.16554 25.8341 10.414 25.8341 13.1782V20.3411C25.8341 23.106 23.5856 25.3566 20.8214 25.3566H13.6585C10.8936 25.3566 8.64307 23.1081 8.64307 20.3439V13.181ZM22.9689 11.747C22.9689 11.3516 22.648 11.0307 22.2526 11.0307C21.8572 11.0307 21.5363 11.3516 21.5363 11.747C21.5363 12.1424 21.8572 12.4633 22.2526 12.4633C22.648 12.4633 22.9689 12.1424 22.9689 11.747ZM21.5363 16.761C21.5363 14.3908 19.6088 12.4633 17.2386 12.4633C14.8684 12.4633 12.9408 14.3908 12.9408 16.761C12.9408 19.1313 14.8684 21.0588 17.2386 21.0588C19.6088 21.0588 21.5363 19.1313 21.5363 16.761ZM15.2126 14.7351C15.7499 14.1977 16.4787 13.8959 17.2386 13.8959C17.9985 13.8959 18.7272 14.1977 19.2645 14.7351C19.8019 15.2724 20.1037 16.0012 20.1037 16.761C20.1037 17.5209 19.8019 18.2497 19.2645 18.787C18.7272 19.3244 17.9985 19.6262 17.2386 19.6262C16.4787 19.6262 15.7499 19.3244 15.2126 18.787C14.6753 18.2497 14.3734 17.5209 14.3734 16.761C14.3734 16.0012 14.6753 15.2724 15.2126 14.7351Z" fill="white"/>
</svg>
