<svg width="35" height="34" viewBox="0 0 35 34" fill="none" xmlns="http://www.w3.org/2000/svg">
<path fill-rule="evenodd" clip-rule="evenodd" d="M34.6992 17C34.6992 26.3888 27.0881 34 17.6992 34C8.31038 34 0.699219 26.3888 0.699219 17C0.699219 7.61116 8.31038 0 17.6992 0C27.0881 0 34.6992 7.61116 34.6992 17ZM24.5428 8.55566H12.1147C10.5352 8.55566 9.25469 9.83613 9.25469 11.4157V23.8438C9.25469 25.4233 10.5352 26.7038 12.1147 26.7038H24.5428C26.1224 26.7038 27.4028 25.4233 27.4028 23.8438V11.4157C27.4028 9.83613 26.1224 8.55566 24.5428 8.55566ZM12.1147 7.55566C9.98287 7.55566 8.25469 9.28385 8.25469 11.4157V23.8438C8.25469 25.9756 9.98288 27.7038 12.1147 27.7038H24.5428C26.6747 27.7038 28.4028 25.9756 28.4028 23.8438V11.4157C28.4028 9.28384 26.6747 7.55566 24.5428 7.55566H12.1147ZM15.1808 12.3335H21.477C22.6634 12.3335 23.6252 13.2953 23.6252 14.4816C23.6252 15.668 22.6634 16.6298 21.477 16.6298H15.1808C13.9944 16.6298 13.0326 15.668 13.0326 14.4816C13.0326 13.2953 13.9944 12.3335 15.1808 12.3335ZM12.0326 14.4816C12.0326 12.743 13.4421 11.3335 15.1808 11.3335H21.477C23.2157 11.3335 24.6252 12.743 24.6252 14.4816C24.6252 16.2203 23.2157 17.6298 21.477 17.6298H15.1808C13.4421 17.6298 12.0326 16.2203 12.0326 14.4816ZM12.0326 23.2961C12.0326 22.9484 12.3145 22.6665 12.6622 22.6665H23.9956C24.3433 22.6665 24.6252 22.9484 24.6252 23.2961C24.6252 23.6439 24.3433 23.9258 23.9956 23.9258H12.6622C12.3145 23.9258 12.0326 23.6439 12.0326 23.2961ZM12.6622 20.1484C12.3145 20.1484 12.0326 20.4303 12.0326 20.7781C12.0326 21.1258 12.3145 21.4077 12.6622 21.4077H23.9956C24.3433 21.4077 24.6252 21.1258 24.6252 20.7781C24.6252 20.4303 24.3433 20.1484 23.9956 20.1484H12.6622Z" fill="white"/>
</svg>
