<svg width="98" height="64" viewBox="0 0 98 64" fill="none" xmlns="http://www.w3.org/2000/svg">
<path d="M13.3276 28.6452C9.60839 28.6452 6.5976 27.5446 4.29523 25.3434C1.99286 23.117 0.841678 20.2833 0.841678 16.8424C0.841678 13.781 1.58805 11.0232 3.08079 8.56902C4.59884 6.08954 6.6482 4.17934 9.22888 2.8384C11.8096 1.47216 14.6559 0.789037 17.7679 0.789037C21.4618 0.789037 24.4473 1.90227 26.7244 4.12874C29.0267 6.3299 30.1779 9.13829 30.1779 12.5539C30.1779 15.6406 29.4189 18.4237 27.9008 20.9031C26.4081 23.3573 24.384 25.2675 21.8287 26.6338C19.2733 27.9747 16.4396 28.6452 13.3276 28.6452ZM14.2764 22.0796C16.7306 22.0796 18.7673 21.1941 20.3865 19.423C22.0311 17.652 22.8533 15.59 22.8533 13.237C22.8533 12.0479 22.6003 11.0105 22.0943 10.125C21.5883 9.23949 20.8672 8.55637 19.9311 8.07565C19.0203 7.59494 17.9576 7.35458 16.7432 7.35458C14.3396 7.35458 12.3029 8.24011 10.6331 10.0112C8.98852 11.7822 8.16625 13.8442 8.16625 16.1972C8.16625 17.9682 8.72286 19.3977 9.8361 20.4857C10.9493 21.5483 12.4294 22.0796 14.2764 22.0796ZM58.7237 1.4342L65.8585 1.4342L64.5682 28H57.6231L58.6098 12.6298L48.2871 28.038H46.3137L42.2149 12.5539L36.9018 28L29.5772 28L38.9132 1.4342L45.8582 1.4342L49.3877 15.8556L58.7237 1.4342ZM84.6321 7.39253C83.0129 7.39253 81.5581 7.82265 80.2678 8.68287C78.9774 9.5178 77.978 10.6184 77.2696 11.9846C76.5865 13.3509 76.2449 14.8436 76.2449 16.4629C76.2449 18.158 76.751 19.5116 77.763 20.5236C78.775 21.5357 80.1666 22.0417 81.9376 22.0417C85.2773 22.0417 87.5797 20.8146 88.8447 18.3604H81.9756L82.9243 13.8822L97.3837 13.8822C96.7006 18.5881 94.9422 22.2314 92.1085 24.8121C89.2748 27.3675 85.6189 28.6452 81.1406 28.6452C77.5985 28.6452 74.7016 27.5446 72.4498 25.3434C70.1981 23.1423 69.0722 20.3592 69.0722 16.9942C69.0722 14.0087 69.7806 11.2889 71.1974 8.83468C72.6396 6.3552 74.613 4.39439 77.1178 2.95225C79.6479 1.51011 82.4436 0.789037 85.505 0.789037C88.8953 0.789037 91.7543 1.82637 94.082 3.90103C96.435 5.95039 97.5988 8.39191 97.5735 11.2256L90.211 11.2256C89.9327 10.0618 89.2875 9.13829 88.2755 8.45516C87.2887 7.74674 86.0743 7.39253 84.6321 7.39253ZM9.44947 63.6452C6.59048 63.6452 4.32607 62.9873 2.65622 61.6717C1.01167 60.3308 0.189393 58.5091 0.189393 56.2067C0.189393 55.6248 0.252645 55.0176 0.379149 54.3851H7.62782C7.57721 54.5875 7.55191 54.7899 7.55191 54.9923C7.55191 55.7766 7.80492 56.3965 8.31094 56.8519C8.81695 57.282 9.52537 57.4971 10.4362 57.4971C11.094 57.4971 11.7012 57.3959 12.2579 57.1935C12.8145 56.9658 13.2699 56.6242 13.6241 56.1688C13.9783 55.7134 14.1554 55.1694 14.1554 54.5369C14.1554 54.1574 14.0416 53.8285 13.8139 53.5502C13.6114 53.2719 13.2825 53.0315 12.8271 52.8291C12.3717 52.6267 11.9416 52.4622 11.5368 52.3357C11.1573 52.2092 10.6133 52.0574 9.90488 51.8803C9.29767 51.7032 8.81695 51.5641 8.46274 51.4629C8.10853 51.3617 7.64047 51.2098 7.05855 51.0074C6.50193 50.805 6.04652 50.6026 5.69231 50.4002C5.3381 50.1978 4.94594 49.9322 4.51582 49.6032C4.11101 49.249 3.7821 48.8948 3.52909 48.5406C3.30139 48.1611 3.09898 47.7057 2.92187 47.1744C2.77007 46.6178 2.69417 46.0358 2.69417 45.4286C2.69417 43.3287 3.18753 41.5576 4.17426 40.1155C5.16099 38.648 6.50193 37.5601 8.19708 36.8517C9.91753 36.1432 11.9163 35.789 14.1934 35.789C15.9644 35.789 17.4951 36.0547 18.7855 36.586C20.0758 37.1173 21.0625 37.9143 21.7456 38.9769C22.4541 40.0143 22.8083 41.2667 22.8083 42.7341C22.8083 43.3413 22.7577 43.9232 22.6565 44.4798L15.6355 44.4798C15.6608 44.2774 15.6735 44.1003 15.6735 43.9485C15.6735 43.2654 15.4457 42.7341 14.9903 42.3546C14.5602 41.9498 13.9404 41.7474 13.1307 41.7474C12.1946 41.7474 11.4356 41.9624 10.8537 42.3925C10.2717 42.7973 9.98079 43.3919 9.98079 44.1762C9.98079 44.5051 10.0693 44.7961 10.2464 45.0491C10.4489 45.3021 10.7651 45.5298 11.1952 45.7322C11.6506 45.9346 12.0554 46.0991 12.4097 46.2256C12.7892 46.3521 13.3331 46.5166 14.0416 46.719C14.5223 46.8455 14.9018 46.9467 15.1801 47.0226C15.4584 47.0985 15.8379 47.225 16.3186 47.4021C16.7993 47.5539 17.1789 47.693 17.4572 47.8195C17.7608 47.946 18.115 48.1232 18.5198 48.3509C18.9499 48.5786 19.2915 48.8063 19.5445 49.034C19.7975 49.2617 20.0631 49.54 20.3414 49.8689C20.6198 50.1725 20.8348 50.5014 20.9866 50.8556C21.1637 51.1845 21.3029 51.5767 21.4041 52.0321C21.5053 52.4875 21.5559 52.9682 21.5559 53.4743C21.5559 56.6875 20.4426 59.1922 18.2162 60.9886C15.9897 62.7596 13.0675 63.6452 9.44947 63.6452ZM51.3855 36.4342H58.5203L57.23 63H50.2849L51.2716 47.6298L40.9489 63.038H38.9755L34.8767 47.5539L29.5636 63H22.239L31.575 36.4342H38.52L42.0495 50.8556L51.3855 36.4342ZM88.5954 36.4342H95.7302L94.4399 63H87.4948L88.4815 47.6298L78.1588 63.038H76.1854L72.0866 47.5539L66.7735 63L59.4489 63L68.7849 36.4342H75.7299L79.2594 50.8556L88.5954 36.4342Z" fill="white"/>
</svg>
