<svg width="34" height="34" viewBox="0 0 34 34" fill="none" xmlns="http://www.w3.org/2000/svg">
<path fill-rule="evenodd" clip-rule="evenodd" d="M17 34C26.3888 34 34 26.3888 34 17C34 7.61116 26.3888 0 17 0C7.61116 0 0 7.61116 0 17C0 26.3888 7.61116 34 17 34ZM23.5438 10.1459L6.79247 15.2818L6.78761 15.2833C6.43184 15.3939 6.07818 15.5414 5.78115 15.7488C5.51961 15.9314 5.07036 16.3253 4.99786 16.9831C4.916 17.7258 5.36156 18.2235 5.67183 18.4558C5.9814 18.6875 6.34372 18.8176 6.659 18.8972L6.659 18.8972L6.66404 18.8984L10.9525 19.9622C11.2549 20.0372 11.5742 20.0018 11.8528 19.8623L12.3967 19.59L12.0944 23.0353C12.0624 23.4005 12.1852 23.7625 12.4329 24.0329C12.6806 24.3033 13.0304 24.4572 13.3971 24.4572C13.785 24.4572 14.1371 24.3875 14.465 24.2359C14.7456 24.1063 14.9606 23.9344 15.0678 23.8488L15.0678 23.8487L15.0782 23.8404L16.4654 22.7778L20.0503 24.8787C20.0905 24.9023 20.1318 24.9236 20.1743 24.9427C20.7164 25.1871 21.4347 25.3665 22.157 25.1064C22.9441 24.8229 23.3609 24.1609 23.5406 23.5171L23.5406 23.5172L23.5445 23.5028L26.3931 12.8269L26.3944 12.8221L26.4008 12.7981L26.4033 12.7882C26.6072 11.9934 26.4842 11.066 25.7165 10.4711C25.035 9.94288 24.1891 9.96037 23.5661 10.1393L23.5438 10.1459ZM20.6187 14.0113L16.2418 16.2025L11.2673 18.693L7.57562 17.7772L7.56179 17.7738L7.55606 17.7724L7.42357 17.7395L6.97888 17.6292C6.04793 17.3943 6.02766 16.8889 7.17579 16.532L7.25723 16.5071L7.26237 16.5055L7.35815 16.4761L7.53875 16.4207L23.9272 11.3962C24.1195 11.3409 24.3058 11.3223 24.4734 11.3396C24.98 11.3919 25.3166 11.7729 25.1356 12.4672L25.1317 12.4818L24.7946 13.7453L22.281 23.1657C22.0696 23.9232 21.5035 24.1074 20.7115 23.7505L16.368 21.205L14.7732 22.4268L14.273 22.8099C14.0414 22.9941 13.8459 23.1496 13.3971 23.1496L13.511 21.8516L13.5139 21.8189L13.5209 21.7388L13.7055 19.6347L16.9203 17.3253L20.8694 14.4883L21.4095 14.1003L21.4173 14.0947L21.7554 13.8519C22.0093 13.6741 21.8541 13.5527 21.5737 13.5921L21.5693 13.5928C21.4637 13.6082 21.3408 13.6463 21.2154 13.7126L20.6187 14.0113Z" fill="white"/>
</svg>
