<svg width="34" height="34" viewBox="0 0 34 34" fill="none" xmlns="http://www.w3.org/2000/svg">
<path d="M17 0C7.61175 0 0 7.61175 0 17C0 26.3883 7.61175 34 17 34C26.3883 34 34 26.3883 34 17C34 7.61175 26.3883 0 17 0ZM10.6193 7.65425C11.8122 7.65425 12.6069 8.449 12.6069 9.50869C12.6069 10.5683 11.8122 11.3631 10.4876 11.3631C9.29475 11.3645 8.5 10.5683 8.5 9.50869C8.5 8.449 9.29475 7.65425 10.6193 7.65425ZM12.75 24.0833H8.5V12.75H12.75V24.0833ZM26.9167 24.0833H22.916V17.8897C22.916 16.1769 21.8493 15.7817 21.4498 15.7817C21.0503 15.7817 19.7158 16.0452 19.7158 17.8897C19.7158 18.1532 19.7158 24.0833 19.7158 24.0833H15.5833V12.75H19.7172V14.331C20.2498 13.4088 21.3166 12.75 23.3169 12.75C25.3173 12.75 26.9167 14.331 26.9167 17.8897V24.0833Z" fill="white"/>
</svg>
