<svg width="31" height="31" viewBox="0 0 31 31" fill="none" xmlns="http://www.w3.org/2000/svg">
<path d="M29.9423 15.3799L29.6234 15.3801L29.9423 15.3799ZM27.8674 22.9936L27.593 22.8312L27.5264 22.9436L27.5578 23.0704L27.8674 22.9936ZM15.2239 0.531855L15.2239 0.212968L15.2239 0.531855ZM0.514435 15.3893L0.195548 15.3894L0.514435 15.3893ZM15.2328 30.2374L15.2329 30.5563L15.2328 30.2374ZM23.5649 27.625L23.6429 27.3158L23.5021 27.2803L23.3829 27.3632L23.5649 27.625ZM29.3792 29.0904L29.3012 29.3996L29.8166 29.5295L29.6887 29.0136L29.3792 29.0904ZM29.6234 15.3801C29.6242 18.1042 28.883 20.6524 27.593 22.8312L28.1418 23.156C29.4886 20.8814 30.262 18.2212 30.2612 15.3798L29.6234 15.3801ZM15.224 0.850742C23.1714 0.84821 29.621 7.35039 29.6234 15.3801L30.2612 15.3798C30.2587 7.00358 23.5291 0.210322 15.2239 0.212968L15.224 0.850742ZM0.833322 15.3892C0.830925 7.35952 7.27666 0.853274 15.224 0.850742L15.2239 0.212968C6.91864 0.215614 0.193048 7.01319 0.195548 15.3894L0.833322 15.3892ZM15.2327 29.9185C7.28538 29.921 0.835718 23.4189 0.833322 15.3892L0.195548 15.3894C0.198048 23.7657 6.92766 30.5589 15.2329 30.5563L15.2327 29.9185ZM23.3829 27.3632C21.0659 28.9742 18.2589 29.9176 15.2327 29.9185L15.2329 30.5563C18.3936 30.5553 21.3269 29.5695 23.7469 27.8868L23.3829 27.3632ZM23.4869 27.9342L29.3012 29.3996L29.4572 28.7812L23.6429 27.3158L23.4869 27.9342ZM29.6887 29.0136L28.1769 22.9168L27.5578 23.0704L29.0697 29.1672L29.6887 29.0136Z" fill="white"/>
</svg>
